<svg width="122" height="122" viewBox="0 0 122 122" fill="none" xmlns="http://www.w3.org/2000/svg">
<path d="M37.9114 10.0833L33.1719 9.60938L26.7057 9L17.8698 17.8359L9 26.7057L9.77864 33.138L10.2526 37.9114L10.4557 41.5338L14.2474 42.1432L23.3542 43.6666V40.1797V30.0234L16.5495 29.4818L17.2604 37.2005L20.6458 33.8151V39.5026L14.1797 38.3854L13.1641 29.7526L19.9349 22.9818L27.2474 30.3281V44.4792L31.513 45.1901L43.6328 47.289L48 48L47.2891 43.6328L45.2578 31.3776L44.5469 27.1458H30.3958L23.0495 19.8333L29.8203 13.0625L38.6562 13.9089L39.7734 20.375H34.0859L37.4714 16.9896L29.7526 16.2786L30.0911 23.5234H40.2474H43.8698L42.3464 14.4505L41.7031 10.6589L37.9114 10.0833ZM41.2969 31.3099L43.1927 43.3281L31.3438 41.5338L31.1745 31.3776L41.2969 31.3099Z" fill="#CC151B"/>
<path d="M8.57958 41.4295L4.95488 44.4325L0 48.4479V73.5521L4.8551 77.6012L8.47981 80.6043L11.3397 83L14.4323 80.773L21.7815 75.408L19.3207 72.8436L12.4038 65.6564L7.08314 70.1442L13.0356 75.1718V70.5491L16.9596 74.6319L11.6722 78.546L5.02137 72.9111V63.4632H15.1972L25.1734 73.5859L28.4988 71.089L38.4751 63.8006L42 61.2362L38.4086 58.3006L28.4323 51.0123L25.1069 48.5153L15.1307 58.638H4.95488V49.1902L11.6057 43.589L16.8931 47.3681L13.0356 51.5522V46.9294L7.21615 51.8558L12.5036 56.3436L19.4204 49.1564L21.8812 46.5583L14.5321 41.227L11.4394 39L8.57958 41.4295ZM25.8052 53.8804L35.4157 61.0337L25.8052 68.1871L18.5226 61L25.8052 53.8804Z" fill="#CC151B"/>
<path d="M10.2135 84.1886L9.74158 88.9118L9 95.2206L17.8989 104.161L26.7303 113L33.0674 112.393L37.7865 111.92L41.5281 111.549L42.1686 107.771L43.6517 98.5943H40.0787H29.9663L29.3596 105.578L37.1798 104.802L33.809 101.428H39.4719L38.3595 107.872L29.5618 108.749L22.8202 102.002L30.4382 94.9844H44.5618L45.2697 90.7336L47.2921 78.3521L48 74L43.5168 74.9784L31.1461 77.0363L27.0674 77.5761V91.8469L19.7528 99.1678L13.0112 92.4204L13.8876 83.6488L20.3258 82.4005V88.0683L16.9551 84.8633L16.2472 92.5554L23.4607 91.8469V81.7258V78.3521L14.3933 79.8702L10.618 80.5112L10.2135 84.1886ZM31.382 80.8149L43.3146 78.9256L41.4607 90.9023H31.3483L31.382 80.8149Z" fill="#CC151B"/>
<path d="M41.3583 113.479L44.3905 117.136L48.3997 122H73.4992L77.6095 117.136L80.6417 113.479L83 110.594L80.7764 107.474L75.4533 100.061L72.8928 102.543L65.683 109.521L70.1976 114.888L75.1164 108.984H70.5008L74.5436 105.026L78.317 110.359L72.7244 117.069H63.2573V106.871L73.3645 96.9744L70.8714 93.6198L63.5942 83.5559L61.0337 80L58.4732 83.5559L51.196 93.6198L48.7029 96.9744L58.8101 106.871V117.136H49.1746L43.5819 110.427L47.2879 105.026L51.3308 108.984H46.8836L51.8024 114.855L56.317 109.521L49.1072 102.543L46.5467 100.061L41.2236 107.474L39 110.594L41.3583 113.479ZM53.8239 96.1022L60.9326 86.4073L68.075 96.1022L60.9326 103.449L53.8239 96.1022Z" fill="#CC151B"/>
<path d="M84.1299 111.918L88.8571 112.391L95.2052 113L104.119 104.07L113 95.2081L112.358 88.8491L111.886 84.1136L111.514 80.3591L107.766 79.7164L98.7169 78.2281V81.8135V91.961L105.706 92.5698L104.997 84.8578L101.621 88.2402V82.5577L108.104 83.6739L108.948 92.5021L102.195 99.2671L94.8675 91.961V77.7884L90.8831 76.7736L78.4909 74.7103L74 74L74.7091 78.3634L76.7351 90.7771L77.3766 95.0052H91.5247L98.8182 102.345L92.0649 109.11L83.4208 108.265L82.3065 101.5H87.9792L84.6026 104.882L92.3013 105.592L91.6597 98.5906H81.5299H78.187L79.6727 107.69L80.3143 111.647L84.1299 111.918ZM80.7532 90.6756L78.8961 78.7016L90.8493 80.562V90.7094L80.7532 90.6756Z" fill="#CC151B"/>
<path d="M113.52 80.6362L117.159 77.5971L122 73.5787V48.4213L117.159 44.4029L113.52 41.3638L110.649 39L107.544 41.2287L100.165 46.5641L102.636 49.1305L109.58 56.3569L114.889 51.8319L109.013 46.9018V51.4267L105.107 47.5434L110.415 43.7613L117.092 49.3668V58.6869H106.943L96.9269 48.5564L93.5882 51.0553L83.5723 58.3492L80 61.0506L83.5389 63.617L93.5548 70.911L96.8935 73.4098L106.909 63.2794H117.126V72.7682L110.448 78.3737L105.107 74.5579L109.013 70.5058V75.0307L114.889 70.1005L109.547 65.5756L102.636 72.8695L100.165 75.4359L107.544 80.7713L110.615 83L113.52 80.6362ZM96.2258 68.142L86.5437 61.0506L96.2258 53.8918L103.504 61.0506L96.2258 68.142Z" fill="#CC151B"/>
<path d="M111.917 38.0209L112.391 33.2689L113 26.8877L104.029 17.9269L95.1588 9L88.8281 9.64492L84.0547 10.1201L80.3307 10.6632L79.6875 14.4648L78.1979 23.5614H81.8203H91.9766L92.6198 16.5353L84.7995 17.4517L88.1849 20.846H82.4974L83.4453 14.0574L92.2474 13.2089L99.0182 19.9974L91.6719 27.3629H77.5208L76.9453 31.3342L74.8802 43.7911L74 48L78.3672 47.2872L90.7578 45.2167L94.9896 44.5379V30.4517L102.302 23.1201L109.073 29.9086L108.227 38.7337L101.76 39.8538V34.1514L105.146 37.376L105.857 29.6371L98.849 30.282V40.4647V44.0627L107.922 42.5692L111.714 41.9243L111.917 38.0209ZM90.6901 41.4151L78.6719 43.282L80.5339 31.2663L90.6901 31.0966V41.4151Z" fill="#CC151B"/>
<path d="M40 11.3757L42.227 14.4448L47.5583 21.8173L50.1227 19.3487L57.4785 12.4432L52.9908 7.10564L48.0307 12.977H52.5859L48.3681 16.8801L44.589 11.5759L50.1902 4.9039H59.6718V15.112L49.5491 25.1199L52.0123 28.4559L59.3344 38.4639L61.8988 42L64.4632 38.4639L71.7515 28.4559L74.2485 25.1199L64.1258 15.112V4.83717H73.5736L79.1748 11.5091L75.3957 16.8133L71.3466 12.9102H75.8681L71.1442 7.10564L66.6564 12.4099L73.8436 19.3487L76.408 21.8173L81.773 14.4448L84 11.3423L81.6043 8.47339L78.6012 4.83717L74.5521 0H49.4141L45.3988 4.83717L42.362 8.47339L40 11.3757ZM61.9663 18.4813L69.1196 25.7538L62 35.4281L54.8466 25.7538L61.9663 18.4813Z" fill="#CC151B"/>
</svg>
